<svg width="63" height="42" viewBox="0 0 63 42" fill="none" xmlns="http://www.w3.org/2000/svg">
<path fill-rule="evenodd" clip-rule="evenodd" d="M33.213 29.5452C31.0501 29.633 29.7184 29.4951 27.8522 28.8211C28.4392 27.6425 34.1862 21.9341 35.5179 20.5078C37.687 18.1787 41.3577 15.8434 41.6234 10.8591C42.1734 0.414267 30.6113 -3.14991 24.2124 3.05683C21.4346 5.74955 18.9813 8.4141 16.2375 11.1256L2.45703 25.05C-4.53829 32.937 4.56735 46.4915 15.1654 40.5261C18.4159 38.6955 19.9546 36.4228 25.0157 34.6297C31.8009 32.2223 37.7673 32.9495 43.5669 37.1093C45.257 38.3224 46.1531 39.4384 47.8926 40.5418C52.1473 43.2408 57.023 41.7236 59.9552 39.2754C62.6372 37.0403 64.0245 31.8712 62.1119 27.4512C60.6412 24.0563 57.0756 21.3135 52.2709 21.6207C47.7258 21.9091 45.5691 25.492 41.8953 26.9371C41.2835 27.307 40.7645 27.5265 40.1341 27.7929C37.9713 28.7051 35.5983 29.448 33.213 29.5452Z" fill="#8CCEFF"/>
</svg>
