<svg width="33" height="33" viewBox="0 0 33 33" fill="none" xmlns="http://www.w3.org/2000/svg">
<g clip-path="url(#clip0_1_36)">
<path d="M16.5 0.161133C7.47656 0.161133 0.161133 7.47656 0.161133 16.5C0.161133 25.5234 7.47656 32.8389 16.5 32.8389C25.5234 32.8389 32.8389 25.5234 32.8389 16.5C32.8389 7.47656 25.5234 0.161133 16.5 0.161133ZM16.5 31.292C8.34668 31.292 1.70801 24.6533 1.70801 16.5C1.70801 8.34668 8.34668 1.70801 16.5 1.70801C24.6533 1.70801 31.292 8.34668 31.292 16.5C31.292 24.6533 24.6533 31.292 16.5 31.292Z" fill="#ECECEC"/>
<path d="M15.5953 8.76004L15.8338 22.422L10.8506 17.6098C10.5555 17.3249 10.04 17.3339 9.75504 17.6289C9.47011 17.924 9.47911 18.4395 9.77416 18.7245L16.1021 24.8669C16.1676 24.9303 16.2654 24.993 16.3626 25.0235C16.5571 25.0846 16.7826 25.0807 16.9426 25.0134C17.0387 24.9795 17.1343 24.9134 17.1976 24.8478L23.3073 18.4883C23.4656 18.3243 23.5266 18.1299 23.5232 17.9366C23.5199 17.7432 23.4521 17.551 23.2881 17.3927C22.9931 17.1078 22.4775 17.1168 22.1926 17.4118L17.3804 22.395L17.1414 8.70083C17.1341 8.28195 16.7734 7.93369 16.3545 7.94101C15.9357 7.94832 15.5874 8.30894 15.5953 8.76004Z" fill="#ECECEC"/>
</g>
<defs>
<clipPath id="clip0_1_36">
<rect width="33" height="33" fill="white"/>
</clipPath>
</defs>
</svg>
